<svg width="668" height="665" viewBox="0 0 668 665" fill="none" xmlns="http://www.w3.org/2000/svg">
<path d="M519.923 81.7174L453.257 46.7324C394.737 16.0221 365.477 0.666748 334 0.666748C302.523 0.666748 273.263 16.0221 214.743 46.7324L204.019 52.3601L501.453 222.322L635.343 155.377C613.803 130.983 579.05 112.745 519.923 81.7174Z" fill="white"/>
<path d="M658.947 199.478L525.667 266.118V367.333C525.667 381.14 514.473 392.333 500.667 392.333C486.86 392.333 475.667 381.14 475.667 367.333V291.117L359 349.45V664.133C382.93 658.173 410.16 643.883 453.257 621.267L519.923 586.283C591.647 548.643 627.507 529.827 647.42 496.01C667.333 462.193 667.333 420.11 667.333 335.95V332.05C667.333 268.963 667.333 229.519 658.947 199.478Z" fill="white"/>
<path d="M309 664.133V349.45L9.05469 199.478C0.66669 229.519 0.666687 268.963 0.666687 332.05V335.95C0.666687 420.11 0.666685 462.193 20.58 496.01C40.493 529.827 76.354 548.643 148.076 586.283L214.743 621.267C257.841 643.883 285.07 658.173 309 664.133Z" fill="white"/>
<path d="M32.6563 155.377L334 306.05L447.707 249.197L151.485 79.9282L148.076 81.7172C88.9517 112.745 54.1967 130.983 32.6563 155.377Z" fill="white"/>
</svg>
