<svg width="899" height="819" viewBox="0 0 899 819" fill="none" xmlns="http://www.w3.org/2000/svg">
<rect width="899" height="819" rx="60" fill="#1D64F2"/>
<path d="M801.989 416.968C801.989 416.836 801.983 416.704 801.981 416.572C801.787 407.714 794.682 400.656 785.728 400.656H781.46L715.554 273.087C712.773 267.7 707.228 264.346 701.105 264.345L588.585 264.321L592.877 230.255C594.102 216.641 589.898 203.787 581.037 194.057C572.193 184.348 559.845 179 546.265 179H197.04C188.26 179 180.801 185.802 179.963 194.571L176.463 222.638H375.434C388.354 222.638 398.553 233.124 398.215 246.058C397.876 258.993 387.129 269.479 374.209 269.479H307.841C307.853 269.512 307.865 269.545 307.877 269.577H112.982C103.846 269.577 96.2447 276.991 96.0058 286.139C95.7668 295.286 102.979 302.7 112.115 302.7H370.134C382.111 304.547 391.059 314.917 390.73 327.472C390.369 341.259 378.968 352.439 365.22 352.555H187.336C178.107 352.555 170.431 360.044 170.188 369.283C169.946 378.523 177.231 386.012 186.46 386.012H362.249C374.401 387.707 383.528 398.16 383.197 410.837C382.835 424.695 371.319 435.93 357.477 435.93H155.807V435.949H138.862C129.633 435.949 121.957 443.438 121.715 452.677C121.472 461.917 128.756 469.406 137.986 469.406H152.61L146.891 529.325C145.664 542.937 149.868 555.791 158.731 565.52C167.573 575.231 179.923 580.578 193.503 580.578H206.118C212.131 614.995 241.873 641 278.254 641C314.635 641 345.738 614.995 353.546 580.579H510.98C523.709 580.579 535.76 575.706 545.211 567.729C553.853 576.033 565.309 580.579 577.817 580.579H580.407C586.418 614.995 616.16 641 652.543 641C688.924 641 720.027 614.995 727.835 580.579H738.227C765.297 580.579 789.305 558.546 791.745 531.464L801.928 418.536C801.941 418.384 801.934 418.233 801.944 418.079C801.961 417.847 801.993 417.619 801.999 417.385C802.003 417.244 801.989 417.109 801.989 416.968ZM279.13 607.543C256.096 607.543 237.846 588.783 238.449 565.723C239.053 542.661 258.283 523.899 281.317 523.899C304.351 523.899 322.599 542.661 321.996 565.723C321.393 588.783 302.164 607.543 279.13 607.543ZM653.419 607.543C630.385 607.543 612.137 588.783 612.738 565.723C613.341 542.661 632.572 523.899 655.606 523.899C678.64 523.899 696.89 542.661 696.285 565.723C695.681 588.783 676.452 607.543 653.419 607.543ZM758.453 529.325C757.584 538.972 748.724 547.122 739.104 547.122H727.864C720.421 514.58 691.531 490.442 656.48 490.442C621.429 490.442 591.277 514.58 582.133 547.122H578.693C574.445 547.122 570.656 545.528 568.017 542.631C565.362 539.716 564.112 535.75 564.498 531.463L585.567 297.778L633.956 297.788L626.286 382.857C625.058 396.469 629.26 409.323 638.121 419.053C646.964 428.765 659.317 434.115 672.898 434.115H767.035L758.453 529.325Z" fill="white"/>
</svg>
