<svg width="800" height="560" viewBox="0 0 800 560" fill="none" xmlns="http://www.w3.org/2000/svg">
<path d="M571.776 207.962C574.201 212.238 576.548 217.403 574.268 221.497C573.696 222.44 573.452 223.546 573.576 224.643C574.016 227.52 576.593 227.296 578.614 227.828C579.899 228.184 581.078 228.847 582.049 229.761C583.58 231.862 585.269 233.842 587.102 235.685C588.366 237.003 589.792 238.155 591.347 239.113C593.586 240.525 596.286 241.013 598.878 240.473C603.265 239.513 607.305 237.371 610.562 234.278C610.855 233.96 611.254 233.76 611.684 233.716C612.114 233.671 612.546 233.785 612.898 234.036C615.689 235.903 617.932 238.479 619.399 241.499C626.392 234.409 642.047 215.804 642.047 215.804C641.312 215.014 640.691 214.125 640.201 213.164C639.529 211.676 639.236 210.044 639.349 208.415C633.111 208.753 623.369 205.775 619.324 202.573L618.951 202.269C619.527 199.129 618.926 195.886 617.262 193.162C616.727 192.141 615.963 191.258 615.029 190.582C614.095 189.906 613.018 189.455 611.881 189.266C611.127 189.243 610.377 189.388 609.685 189.691C608.994 189.993 608.378 190.445 607.882 191.014C606.767 192.287 606.133 193.912 606.091 195.604C601.842 193.287 600.262 191.913 596.625 190.889C590.298 189.378 581.588 188.661 573.85 191.805C570.677 193.096 568.03 195.416 566.333 198.392C567.444 200.95 568.82 203.384 570.438 205.656C570.861 206.387 571.32 207.159 571.776 207.962Z" fill="white"/>
<path d="M570.555 164.835C565.518 171.099 562.843 178.934 562.999 186.97C563.268 190.998 564.385 194.923 566.279 198.489C567.964 195.462 570.634 193.102 573.845 191.801C581.583 188.657 590.293 189.376 596.62 190.885C600.257 191.909 601.844 193.283 606.086 195.6C606.128 193.908 606.761 192.284 607.877 191.01C608.373 190.441 608.988 189.989 609.68 189.687C610.371 189.384 611.121 189.239 611.875 189.262C613.012 189.452 614.09 189.902 615.023 190.578C615.957 191.254 616.722 192.137 617.257 193.158C618.921 195.883 619.522 199.125 618.945 202.265L619.318 202.569C623.364 205.773 633.107 208.749 639.347 208.41C639.709 204.767 640.338 201.155 641.228 197.604C643.248 186.859 641.004 175.749 634.971 166.63C630.641 160.43 624.697 155.531 617.783 152.465C602.128 145.706 591.698 149.457 585.628 152.332C579.842 155.168 574.791 159.303 570.867 164.414C570.764 164.559 570.66 164.7 570.555 164.835Z" fill="#7A7473"/>
<path d="M562.97 199.961C564.548 203.192 566.317 206.326 568.268 209.346C569.718 211.863 571.839 215.229 571.449 218.291C571.246 219.881 570.205 221.228 569.94 222.837C569.62 224.645 569.986 226.508 570.966 228.061C572.815 230.879 575.679 230.612 578.429 231.713C579.549 232.159 580.2 233.476 581.068 234.54C582.222 235.965 583.457 237.323 584.768 238.607C587.347 241.389 590.705 243.328 594.403 244.173C597.832 244.622 601.316 244.063 604.432 242.565C606.068 241.907 607.642 241.107 609.138 240.174C609.896 239.689 610.618 239.158 611.323 238.6C611.67 238.335 612.008 238.057 612.333 237.766C612.956 237.305 612.948 237.206 612.312 237.486L610.429 236.976C611.286 237.335 612.051 237.882 612.668 238.575C614.16 239.914 615.357 241.549 616.182 243.376C616.686 244.225 617.505 244.842 618.46 245.093C619.415 245.343 620.431 245.208 621.287 244.716C622.124 244.201 622.73 243.383 622.98 242.432C623.229 241.481 623.103 240.471 622.627 239.611C620.988 235.976 617.029 230.897 612.812 230.095C609.424 229.446 607.619 232.353 605.074 233.927C602.683 235.57 599.931 236.61 597.051 236.961C590.537 237.267 587.658 229.093 583.171 225.913C582.023 225.105 580.737 224.514 579.375 224.171C579.025 224.083 576.834 223.518 576.763 223.579C576.577 223.755 577.509 224.063 577.286 224.139C577.362 223.771 577.482 223.413 577.644 223.074C577.976 222.376 578.263 221.657 578.502 220.922C578.906 219.402 579.013 217.818 578.816 216.258C577.955 208.673 572.317 202.982 569.415 196.199C568.911 195.349 568.093 194.732 567.137 194.482C566.182 194.231 565.166 194.368 564.31 194.861C563.474 195.378 562.869 196.196 562.619 197.146C562.37 198.096 562.496 199.106 562.97 199.966V199.961Z" fill="#211715"/>
<path d="M570.192 197.888C568.076 194.183 566.916 190.01 566.817 185.745C566.717 181.48 567.681 177.257 569.621 173.458C571.867 168.839 575.016 164.717 578.881 161.335C582.746 157.953 587.249 155.379 592.125 153.765C601.682 150.808 612.277 153.041 620.696 158.204C625.545 161.151 629.638 165.191 632.647 170.001C635.657 174.812 637.499 180.259 638.028 185.909C638.386 190.762 637.985 195.641 636.841 200.371C636.023 203.387 635.615 206.499 635.63 209.624C635.821 212.917 637.158 216.039 639.41 218.448C642.569 222.077 647.829 216.78 644.687 213.169C641.177 209.135 644.139 202.752 644.909 198.162C645.789 193.009 645.852 187.75 645.096 182.578C644.109 176.188 641.722 170.095 638.104 164.735C634.486 159.376 629.728 154.883 624.17 151.578C614.32 145.647 601.779 143.144 590.608 146.43C579.443 149.841 570.017 157.414 564.28 167.582C561.286 172.83 559.56 178.705 559.243 184.739C559.19 190.682 560.75 196.529 563.758 201.655C566.074 205.864 572.528 202.103 570.201 197.888H570.192Z" fill="#211715"/>
<path d="M616.688 205.215C619.822 207.529 623.352 209.251 627.105 210.296C630.907 211.534 634.882 212.163 638.881 212.162C639.87 212.162 640.819 211.769 641.519 211.069C642.219 210.369 642.612 209.42 642.612 208.43C642.612 207.44 642.219 206.491 641.519 205.791C640.819 205.091 639.87 204.698 638.881 204.698C638.101 204.716 637.322 204.695 636.544 204.635C636.13 204.603 635.718 204.551 635.304 204.515C634.83 204.473 636.037 204.629 635.304 204.515L634.733 204.426C632.92 204.126 631.129 203.71 629.37 203.179C628.525 202.926 627.691 202.648 626.857 202.342C626.456 202.194 626.06 202.038 625.661 201.881C625.232 201.711 625.536 201.862 625.786 201.935C625.574 201.857 625.368 201.766 625.168 201.661C624.474 201.342 623.791 201 623.129 200.621C622.826 200.448 622.528 200.271 622.237 200.08C621.946 199.89 621.005 199.188 621.961 199.929C621.241 199.259 620.304 198.872 619.322 198.838C618.584 198.838 617.863 199.057 617.249 199.467C616.636 199.877 616.158 200.46 615.875 201.141C615.593 201.823 615.519 202.573 615.663 203.297C615.807 204.021 616.162 204.686 616.684 205.208L616.688 205.215Z" fill="#211715"/>
<path d="M574.838 195.408C580.064 193.442 585.706 192.839 591.229 193.658C593.474 193.879 595.677 194.405 597.779 195.223C598.103 195.363 599.512 196.136 600.217 196.542C601.412 197.233 602.595 197.936 603.796 198.608C607.996 200.952 611.764 194.503 607.563 192.163C605.171 190.695 602.695 189.368 600.148 188.189C597.44 187.173 594.608 186.523 591.728 186.256C585.372 185.319 578.883 185.992 572.854 188.211C571.915 188.498 571.121 189.133 570.635 189.987C570.149 190.84 570.009 191.847 570.242 192.801C570.51 193.753 571.142 194.561 572.001 195.05C572.86 195.539 573.877 195.669 574.832 195.414L574.838 195.408Z" fill="#211715"/>
<path d="M609.829 195.55C609.883 195.251 609.94 194.956 610.015 194.664C610.043 194.563 610.301 193.768 610.116 194.27C609.931 194.772 610.358 193.885 610.405 193.783C610.543 193.473 610.032 194.109 610.511 193.658C610.625 193.548 611.37 192.984 610.713 193.408C610.926 193.272 611.155 193.156 611.362 193.016C611.706 192.786 610.775 193.169 611.429 193.016C612.344 192.803 610.642 193.016 611.581 192.994C612.407 192.975 610.952 192.738 611.724 193.007C611.833 193.044 612.566 193.35 612.097 193.115C611.629 192.88 612.361 193.285 612.45 193.339C612.637 193.456 613.196 194.007 612.683 193.479C612.87 193.665 613.057 193.824 613.243 194.009C613.321 194.089 613.943 194.826 613.652 194.441C613.361 194.057 613.822 194.714 613.874 194.798C614.06 195.085 614.211 195.384 614.364 195.684C614.404 195.759 614.81 196.595 614.624 196.19C614.437 195.785 614.784 196.61 614.81 196.692C615.019 197.31 615.192 197.94 615.329 198.578C615.497 199.289 615.329 198.233 615.359 198.681C615.376 198.94 615.408 199.2 615.417 199.461C615.439 200.084 615.415 200.707 615.346 201.327C615.404 200.797 615.383 201.032 615.305 201.418C615.251 201.676 615.191 201.933 615.118 202.189C615.034 202.498 614.932 202.808 614.837 203.122C614.807 203.206 614.491 204.03 614.669 203.597C614.846 203.165 614.482 203.991 614.443 204.069C614.29 204.382 614.128 204.688 613.956 204.987C613.599 205.618 613.21 206.225 612.788 206.818C612.293 207.673 612.156 208.69 612.407 209.646C612.657 210.602 613.275 211.42 614.126 211.923C614.986 212.398 615.996 212.524 616.947 212.275C617.897 212.026 618.716 211.421 619.233 210.585C621.398 207.612 622.663 204.079 622.877 200.407C622.97 196.899 621.958 193.45 619.983 190.549C618.961 188.867 617.474 187.517 615.703 186.659C613.931 185.802 611.95 185.475 609.996 185.717C608.125 186.147 606.424 187.124 605.109 188.524C603.794 189.924 602.926 191.683 602.613 193.578C602.483 194.05 602.447 194.544 602.507 195.03C602.568 195.517 602.723 195.986 602.965 196.413C603.207 196.839 603.531 197.214 603.917 197.515C604.304 197.816 604.746 198.038 605.219 198.169C605.691 198.299 606.185 198.335 606.671 198.275C607.158 198.214 607.628 198.059 608.054 197.817C608.48 197.575 608.855 197.251 609.156 196.864C609.457 196.478 609.68 196.035 609.81 195.563L609.829 195.55Z" fill="#211715"/>
<path d="M578.612 207.719C579.013 209.798 581.493 213.774 584.917 212.447C589.186 210.208 586.833 205.058 584.171 203.444C581.995 202.123 578.108 203.12 578.612 207.719Z" fill="#211715"/>
<path d="M618.636 219.76C619.415 218.653 620.072 217.464 620.595 216.215C621.38 214.465 622.074 212.676 622.675 210.856C623.179 209.349 623.601 207.817 623.94 206.266C624.286 204.894 624.464 203.486 624.47 202.071C624.47 201.081 624.077 200.132 623.377 199.432C622.677 198.733 621.728 198.339 620.738 198.339C619.749 198.339 618.8 198.733 618.1 199.432C617.4 200.132 617.007 201.081 617.007 202.071C617.007 202.291 617.007 202.511 617.007 202.732C617.007 202.952 616.885 203.831 616.994 203.034C617.106 202.207 616.954 203.245 616.917 203.448C616.856 203.784 616.788 204.122 616.714 204.456C616.38 205.948 615.971 207.422 615.488 208.872C615.247 209.61 614.988 210.342 614.714 211.068C614.566 211.458 614.409 211.843 614.256 212.229C613.973 212.942 614.63 211.393 614.318 212.085C614.238 212.272 614.159 212.445 614.079 212.626C613.573 213.809 612.944 214.935 612.2 215.985C611.951 216.416 611.789 216.892 611.725 217.385C611.661 217.879 611.696 218.38 611.827 218.86C612.092 219.796 612.706 220.594 613.542 221.09C614.402 221.562 615.411 221.686 616.361 221.437C617.31 221.188 618.128 220.585 618.647 219.752L618.636 219.76Z" fill="#211715"/>
<path d="M601.749 211.395C602.537 208.619 603.475 205.878 604.518 203.185C604.681 202.765 604.847 202.345 605.015 201.929C605.1 201.717 605.188 201.506 605.274 201.295C605.059 201.784 605.619 200.455 605.274 201.295C605.666 200.409 606.056 199.522 606.478 198.649C607.264 196.991 608.168 195.392 609.183 193.863C609.676 193.007 609.812 191.991 609.561 191.036C609.31 190.08 608.693 189.262 607.843 188.758C606.984 188.282 605.974 188.155 605.023 188.404C604.072 188.653 603.254 189.259 602.738 190.096C600.572 193.507 598.788 197.147 597.419 200.95C596.336 203.721 595.366 206.547 594.553 209.408C594.29 210.362 594.416 211.382 594.905 212.243C595.394 213.104 596.205 213.735 597.159 213.998C598.114 214.261 599.133 214.134 599.994 213.645C600.855 213.156 601.486 212.346 601.749 211.391V211.395Z" fill="#211715"/>
<path d="M600.37 210.826C599.732 210.368 598.992 210.074 598.214 209.969C597.436 209.864 596.644 209.951 595.907 210.223C589.591 212.694 583.405 215.484 577.373 218.582C576.293 219.124 573.49 221.204 573.268 223.04C573.165 223.966 573.255 224.903 573.532 225.793C573.81 226.682 574.269 227.504 574.88 228.207C576.433 230.405 578.213 232.433 580.193 234.256C582.618 236.48 588.216 241.371 591.524 242.191C599.378 244.138 603.158 241.171 607.175 237.952C610.877 234.6 613.223 230.008 613.769 225.044C613.827 224.497 613.766 223.943 613.591 223.422C613.417 222.9 613.132 222.422 612.756 222.019C611.077 220.208 608.425 218.924 605.96 216.703C603.91 214.854 602.044 212.02 600.37 210.826Z" fill="white"/>
<path d="M602.255 207.603C597.601 204.693 592.855 207.346 588.395 209.273C584.216 211.078 580.092 213.035 576.03 215.089C572.429 216.912 569.178 220.219 569.52 224.521C569.872 228.959 573.449 232.851 576.467 235.855C581.952 241.316 588.541 246.852 596.721 246.535C604.472 246.233 611.834 240.395 615.087 233.55C617.512 228.438 619.082 222.249 614.09 218.192C612.146 216.614 609.937 215.371 608.131 213.621C606.522 211.719 604.813 209.905 603.011 208.186C602.295 207.515 601.352 207.142 600.371 207.142C599.391 207.142 598.447 207.515 597.732 208.186C597.038 208.889 596.649 209.837 596.649 210.825C596.649 211.813 597.038 212.761 597.732 213.464C600.516 215.634 602.397 218.719 605.226 220.889C606.55 221.904 608.011 222.771 609.276 223.853C609.678 224.197 609.987 224.434 610.062 224.885C610.032 225.773 609.838 226.647 609.489 227.464C608.75 230.054 607.4 232.429 605.55 234.387C603.701 236.346 601.408 237.831 598.865 238.717C593.179 240.339 588.852 236.879 584.772 233.349C582.44 231.408 580.328 229.219 578.472 226.818C577.913 226.072 576.756 224.755 576.954 223.781C577.038 223.363 578.038 222.555 578.652 222.148C581.844 220.283 585.172 218.661 588.608 217.297C590.435 216.459 592.273 215.642 594.137 214.888C595.484 214.343 597.122 213.188 598.488 214.043C602.572 216.603 606.323 210.147 602.255 207.603Z" fill="#211715"/>
<path d="M450.239 229.938C459.99 229.938 488.617 229.752 497.717 229.752V163.942C488.617 163.942 459.748 164.315 449.995 164.315C449.995 178.602 450.239 208.645 450.239 229.942" fill="white"/>
<path d="M450.239 233.67C466.064 233.67 481.89 233.483 497.717 233.483C498.702 233.469 499.643 233.072 500.34 232.375C501.037 231.678 501.434 230.737 501.448 229.752V163.942C501.434 162.956 501.037 162.015 500.34 161.318C499.643 160.622 498.702 160.224 497.717 160.21C481.808 160.21 465.903 160.583 449.995 160.583C449.009 160.598 448.069 160.995 447.372 161.692C446.675 162.389 446.277 163.33 446.263 164.315C446.263 186.191 446.504 208.066 446.507 229.942C446.507 234.743 453.971 234.752 453.971 229.942C453.971 208.066 453.73 186.191 453.726 164.315L449.995 168.047C465.903 168.047 481.808 167.674 497.717 167.674L493.985 163.942V229.752L497.717 226.02C481.89 226.02 466.064 226.206 450.239 226.206C445.436 226.206 445.427 233.67 450.239 233.67Z" fill="#211715"/>
<path d="M469.754 214.188H477.712C478.7 214.176 479.644 213.784 480.351 213.095C480.873 212.573 481.228 211.908 481.372 211.184C481.516 210.46 481.442 209.71 481.159 209.028C480.877 208.347 480.399 207.764 479.785 207.354C479.172 206.944 478.45 206.725 477.712 206.725H469.754C468.768 206.737 467.823 207.128 467.116 207.816C466.594 208.338 466.238 209.003 466.094 209.727C465.949 210.451 466.023 211.202 466.305 211.884C466.588 212.566 467.066 213.149 467.68 213.559C468.294 213.97 469.016 214.188 469.754 214.188Z" fill="#211715"/>
<path d="M394.076 513.587V7.44397C351.017 7.44397 289.194 5.83744 223.985 5.83744C170.755 5.83744 104.863 4.43616 55.0176 4.43616V6.91219C54.9766 52.6825 53.8981 163.563 53.8981 196.649C53.8981 274.43 54.6855 397.906 54.6892 510.835" fill="#BDBDBD"/>
<path d="M370.566 515.207V31.4692C334.828 31.4692 278.107 30.1351 223.983 30.1351C179.797 30.1351 119.691 28.9727 78.3282 28.9727V31.0251C78.2946 69.0146 77.3953 171.219 77.3953 198.681C77.3953 263.241 78.0483 419.192 78.0521 512.923" fill="#D9D9D9"/>
<path d="M374.297 515.207V31.4692C374.283 30.484 373.885 29.5431 373.188 28.8464C372.492 28.1497 371.551 27.7519 370.566 27.7374C332.501 27.7374 294.452 26.8399 256.396 26.5414C217.24 26.2335 178.088 26.1327 138.932 25.6961C118.732 25.4722 98.5301 25.2446 78.3281 25.2408C77.3427 25.2548 76.4016 25.6525 75.7048 26.3493C75.008 27.0462 74.6103 27.9872 74.5963 28.9726C74.5963 57.9536 74.3351 86.9365 74.1392 115.923C73.9526 142.962 73.6988 170.004 73.669 197.044C73.6391 224.99 73.7455 252.937 73.8183 280.884C73.9165 318.327 74.0191 355.769 74.1261 393.211C74.2182 429.328 74.2804 465.446 74.3127 501.563C74.3127 505.351 74.3127 509.139 74.3127 512.928C74.3127 517.729 81.7763 517.739 81.7763 512.928C81.7763 477.688 81.7215 442.447 81.6121 407.207C81.5188 369.363 81.4162 331.52 81.3042 293.677C81.2221 263.823 81.1599 233.969 81.1176 204.114C81.1064 178.761 81.3341 153.407 81.5057 128.053C81.7091 97.7978 81.9535 67.5406 82.0319 37.2852C82.0394 34.5174 82.0437 31.7503 82.045 28.9838L78.3132 32.7156C115.407 32.7156 152.501 33.3892 189.593 33.7064C230.213 34.0553 270.83 34.1038 311.45 34.6393C331.149 34.9006 350.851 35.1991 370.551 35.2103L366.819 31.4785V515.207C366.819 520.009 374.282 520.017 374.282 515.207H374.297Z" fill="#211715"/>
<path d="M397.808 513.587V7.44394C397.793 6.45871 397.395 5.51789 396.699 4.82116C396.002 4.12442 395.061 3.72661 394.076 3.71216C351.19 3.71216 308.31 2.6654 265.428 2.29595C219.276 1.90038 173.123 1.82388 126.964 1.26411C102.984 0.987961 79.0017 0.704346 55.0176 0.704346C54.0322 0.718332 53.0911 1.11599 52.3943 1.81283C51.6975 2.50966 51.2998 3.45075 51.2858 4.43612C51.2858 31.3292 51.0582 58.2222 50.866 85.1134C50.6607 114.07 50.4592 143.026 50.2614 171.982C50.1122 198.395 50.1849 224.809 50.2614 251.222C50.3697 290.13 50.5034 329.036 50.6626 367.941C50.8081 410.276 50.9064 452.612 50.9574 494.949C50.9574 500.244 50.9574 505.539 50.9574 510.835C50.9574 515.638 58.421 515.645 58.421 510.835C58.421 468.301 58.3383 425.769 58.1728 383.238C58.0422 343.584 57.9041 303.931 57.7586 264.278C57.6709 236.226 57.5459 208.173 57.6802 180.126C57.8121 152.262 57.9987 124.394 58.24 96.5215C58.4415 68.7291 58.6635 40.9366 58.7307 13.1442C58.7382 10.2446 58.7419 7.34442 58.7419 4.44359L55.0101 8.17537C98.9369 8.17537 142.86 9.02808 186.783 9.39939C233.718 9.79496 280.637 9.86586 327.577 10.5189C349.742 10.8305 371.907 11.1757 394.074 11.1794L390.342 7.44767V513.587C390.342 518.388 397.808 518.397 397.808 513.587Z" fill="#211715"/>
<path d="M3.6049 518.966C46.7592 518.966 89.9153 519.121 133.07 519.136C146.342 519.136 159.615 519.149 172.888 519.173C194.159 519.197 215.436 519.225 236.718 519.257C263.915 519.295 291.111 519.334 318.306 519.375L410.531 519.513L506.079 519.659C537.053 519.707 568.023 519.754 598.99 519.798L681.947 519.92C703.907 519.95 725.866 519.979 747.822 520.007C762.003 520.024 776.189 520.037 790.379 520.048H796.395C801.198 520.048 801.205 512.585 796.395 512.585C784.486 512.585 772.575 512.576 760.663 512.557C740.305 512.535 719.946 512.508 699.585 512.479C673.202 512.444 646.817 512.406 620.432 512.365L529.319 512.229L433.45 512.083L340.112 511.943L255.293 511.818C232.298 511.784 209.302 511.753 186.305 511.725C170.929 511.705 155.552 511.688 140.175 511.674C106.38 511.651 72.5837 511.604 38.7862 511.534C27.0597 511.513 15.3326 511.502 3.6049 511.501C-1.1979 511.501 -1.20536 518.964 3.6049 518.964V518.966Z" fill="#211715"/>
<path d="M322.218 246.733C312.994 246.733 307.743 252.629 307.743 260.604C307.743 267.959 311.337 275.249 323.198 275.249C332.005 275.249 336.897 269.799 336.897 260.992C336.897 252.745 331.165 246.733 322.218 246.733Z" fill="#BDBDBD"/>
<path d="M322.219 243.001C314.249 243.081 306.918 247.325 304.707 255.307C302.953 261.625 304.293 269.611 309.232 274.203C314.977 279.545 324.816 280.435 331.776 277.128C338.597 273.887 341.348 265.823 340.474 258.699C340.064 254.424 338.087 250.451 334.923 247.547C331.371 244.557 326.862 242.944 322.219 243.001C317.416 242.949 317.412 250.413 322.219 250.465C322.638 250.465 323.056 250.478 323.474 250.506C323.452 250.506 324.78 250.648 324.086 250.549C324.845 250.663 325.593 250.836 326.325 251.066C326.562 251.138 326.794 251.226 327.029 251.303C328.081 251.648 326.514 250.984 327.477 251.489C328.212 251.857 328.917 252.282 329.585 252.76C329.059 252.364 329.649 252.823 329.772 252.937C329.979 253.135 330.193 253.323 330.393 253.529C330.634 253.773 330.858 254.029 331.082 254.288C330.583 253.708 331.268 254.564 331.317 254.629C331.638 255.113 331.899 255.62 332.179 256.122C332.696 257.055 332.007 255.499 332.356 256.52C332.511 256.971 332.664 257.419 332.785 257.884C332.878 258.238 332.944 258.594 333.024 258.953C333.278 260.082 333.003 258.565 333.076 259.255C333.146 259.964 333.174 260.677 333.16 261.39C333.153 261.785 333.135 262.179 333.108 262.573C333.108 262.602 332.97 263.856 333.076 263.089C332.975 263.802 332.825 264.506 332.626 265.198C332.531 265.528 332.412 265.849 332.311 266.179C332.001 267.181 332.649 265.605 332.173 266.517C331.925 266.997 331.682 267.472 331.388 267.926C331.318 268.032 330.684 268.842 331.225 268.193C331.026 268.431 330.82 268.668 330.602 268.892C330.384 269.116 330.147 269.32 329.921 269.536C329.326 270.109 330.33 269.323 329.682 269.723C329.122 270.064 328.591 270.391 328.003 270.678C328.749 270.314 327.764 270.764 327.659 270.801C327.335 270.913 327.005 271.013 326.671 271.102C326.443 271.163 326.213 271.217 325.984 271.268C325.934 271.268 324.766 271.484 325.531 271.376C324.593 271.495 323.647 271.539 322.702 271.508C320.072 271.583 317.479 270.888 315.238 269.51C315.13 269.439 314.339 268.78 314.97 269.323C314.783 269.154 314.58 268.986 314.391 268.807C314.203 268.627 313.171 267.398 313.673 268.084C313.319 267.604 313.001 267.099 312.719 266.573C312.626 266.399 312.546 266.219 312.452 266.043C312.279 265.659 312.286 265.685 312.473 266.118C312.401 265.932 312.332 265.746 312.266 265.558C312.069 264.992 311.905 264.414 311.775 263.828C311.721 263.582 311.507 262.086 311.605 263.03C311.478 261.723 311.453 260.409 311.531 259.098C311.585 257.964 311.357 259.746 311.585 258.652C311.68 258.191 311.771 257.732 311.896 257.279C311.988 256.945 312.107 256.622 312.21 256.292C312.458 255.478 311.997 256.615 312.355 255.932C312.701 255.235 313.1 254.566 313.55 253.932C313.074 254.577 313.736 253.732 313.807 253.663C314.034 253.414 314.269 253.179 314.512 252.958C314.572 252.902 315.421 252.211 314.792 252.687C315.159 252.416 315.542 252.167 315.938 251.941C316.242 251.763 316.556 251.61 316.871 251.45C317.27 251.263 317.302 251.252 316.968 251.4C317.14 251.334 317.311 251.271 317.485 251.213C319.005 250.685 320.606 250.429 322.215 250.455C327.019 250.416 327.031 242.953 322.219 243.001Z" fill="#211715"/>
<path d="M723.004 552.634C726.98 551.576 730.921 550.341 734.776 549.108C736.168 548.756 737.481 548.143 738.644 547.302C739.828 546.237 740.661 544.837 741.032 543.288C742.669 537.399 739.913 531.277 737.181 525.807C733.772 529.006 729.573 531.24 725.016 532.282C720.458 533.323 715.705 533.134 711.245 531.733C710.747 531.589 710.217 531.598 709.723 531.757C700.393 533.037 694.226 537.289 688.411 544.693C686.95 546.559 685.63 549.091 686.759 551.17C687.652 552.446 688.993 553.339 690.515 553.668C701.015 557.079 712.154 555.521 723.004 552.634Z" fill="#645D5C"/>
<path d="M631.568 294.184C630.605 300.833 629.064 325.718 628.099 332.374C627.903 334.31 627.455 336.212 626.767 338.033C626.052 339.542 625.166 340.964 624.125 342.27C616.863 352.096 607.332 364.174 599.421 372.901C598.185 374.268 587.6 374.767 585.077 375.765C579.772 377.953 574.95 381.165 570.887 385.217C564.784 391.11 563.039 400.518 562.588 409.287C562.11 418.563 600.454 404.274 616.29 390.629C625.993 382.271 647.727 359.856 651.331 348.637C655.905 334.407 654.253 320.794 655.261 305.88C655.261 290.413 631.564 279.728 631.564 294.188" fill="white"/>
<path d="M635.195 539.999C635.195 511.57 634.656 428.116 634.656 401.591H442.8C442.8 428.116 443.88 512.279 443.88 540.71C485.531 540.71 573.112 539.999 635.195 539.999Z" fill="#F6C385"/>
<path d="M518.329 401.714V422.209C520.436 422.209 531.797 422.287 534.99 422.287C537.602 422.287 553.165 422.356 555.604 422.356C555.604 422.317 559.614 422.276 559.614 422.235C559.614 419.996 559.668 413.969 559.668 412.346C559.668 408.539 559.629 407.364 559.629 401.837" fill="#89705D"/>
<path d="M648.048 326.162C643.804 320.578 640.217 314.524 637.36 308.119C635.307 304.014 624.536 276.539 623.756 273.63C620.731 262.334 620.688 258.492 620.69 239.671C624.103 242.059 627.679 244.205 631.393 246.091C632.529 246.7 633.566 247.25 634.415 247.715C642.439 240.88 648.958 221.581 648.482 217.564L648.419 217.036L648.482 217.049C652.218 218.119 655.795 219.683 659.118 221.699C662.512 223.542 665.673 225.788 668.531 228.386C675.545 234.894 681.774 242.2 687.09 250.155C699.177 267.353 716.438 295.045 727.493 319.193C731.225 324.791 733.518 331.293 731.785 334.803C720.838 339.111 687.784 351.146 675.211 353.346L648.048 326.162Z" fill="#1D64F2"/>
<path d="M710.568 531.638C701.115 516.39 684.279 480.632 674.825 465.384C670.907 459.06 666.908 452.543 665.589 445.221C664.346 438.336 665.572 431.271 666.796 424.383C669.968 406.576 672.056 371.154 675.219 353.348C687.791 351.148 720.845 339.113 731.792 334.805C745.938 361.205 726.708 398.234 717.039 424.758C715.145 429.954 713.333 435.434 714.113 440.909C714.828 445.919 719.097 453.705 721.577 458.108C731.186 475.116 736.108 509.42 737.437 528.917" fill="white"/>
<path d="M638.927 539.999C638.927 522.739 638.826 505.48 638.741 488.216C638.642 467.504 638.545 446.792 638.449 426.082C638.416 417.921 638.393 409.758 638.382 401.594C638.368 400.609 637.971 399.668 637.274 398.971C636.577 398.274 635.636 397.877 634.65 397.863H442.8C441.815 397.877 440.874 398.275 440.177 398.972C439.48 399.668 439.082 400.609 439.068 401.594C439.068 418.427 439.273 435.259 439.441 452.091C439.64 473.103 439.835 494.115 440.025 515.126C440.092 523.655 440.158 532.184 440.158 540.713C440.172 541.698 440.57 542.639 441.267 543.336C441.963 544.033 442.904 544.43 443.889 544.445C465.72 544.445 487.534 544.316 509.356 544.204C536.676 544.066 563.997 543.942 591.319 543.831C605.948 543.779 620.576 543.749 635.205 543.741C640.007 543.741 640.017 536.278 635.205 536.278C608.522 536.278 581.84 536.358 555.158 536.519C529.194 536.643 503.23 536.771 477.266 536.901C466.142 536.947 455.018 536.976 443.893 536.989L447.625 540.721C447.625 523.435 447.423 506.149 447.261 488.866C447.066 467.981 446.872 447.096 446.679 426.209C446.614 417.999 446.546 409.804 446.545 401.602L442.813 405.334H634.656L630.924 401.602C630.924 418.41 631.027 435.218 631.111 452.026C631.209 472.866 631.306 493.706 631.402 514.544C631.436 523.034 631.457 531.522 631.467 540.01C631.467 544.812 638.931 544.822 638.931 540.01L638.927 539.999Z" fill="#211715"/>
<path d="M514.612 401.714V422.209C514.627 423.194 515.024 424.135 515.721 424.831C516.418 425.528 517.359 425.926 518.344 425.94C530.099 425.94 541.854 426.041 553.6 426.082C554.613 426.082 555.609 425.968 556.611 425.954C554.844 425.978 557.259 426.036 557.824 426.024C558.761 426.03 559.696 425.967 560.623 425.838C561.409 425.618 562.101 425.148 562.596 424.498C563.09 423.849 563.359 423.056 563.362 422.24C563.362 415.444 563.368 408.646 563.379 401.846C563.379 397.045 555.916 397.036 555.916 401.846C555.916 408.643 555.91 415.441 555.899 422.24L558.638 418.641C560.261 418.376 558.429 418.553 557.826 418.566C557.112 418.581 556.386 418.566 555.673 418.622C553.578 418.794 556.21 418.718 555.158 418.622C554.785 418.591 554.397 418.622 554.022 418.622C551.35 418.615 548.675 418.605 545.998 418.593L524.628 418.503C522.533 418.503 520.438 418.481 518.342 418.481L522.074 422.212V401.714C522.074 396.911 514.612 396.904 514.612 401.714Z" fill="#211715"/>
<path d="M616.958 240.201C616.958 252.368 616.656 264.905 620.8 276.546C624.47 286.852 628.562 297.071 632.854 307.124C636.096 314.856 640.316 322.141 645.409 328.8C646.112 329.496 647.06 329.886 648.049 329.886C649.037 329.886 649.985 329.496 650.688 328.8C651.364 328.088 651.741 327.143 651.741 326.161C651.741 325.179 651.364 324.234 650.688 323.522C646.289 317.643 642.625 311.248 639.78 304.479C639.033 302.771 638.354 301.101 637.438 298.846C636.331 296.121 635.239 293.391 634.162 290.654C630.628 281.698 626.789 272.857 625.263 263.297C624.123 256.163 624.422 247.767 624.422 240.201C624.422 235.398 616.958 235.39 616.958 240.201Z" fill="#211715"/>
<path d="M730.802 331.206C721.659 334.794 712.411 338.109 703.123 341.268C693.693 344.485 684.063 347.985 674.228 349.749C673.277 350.018 672.47 350.651 671.981 351.51C671.493 352.369 671.361 353.386 671.616 354.341C671.896 355.284 672.53 356.082 673.386 356.569C674.241 357.056 675.251 357.194 676.206 356.953C686.043 355.19 695.671 351.689 705.101 348.471C714.389 345.299 723.644 341.996 732.779 338.408C733.719 338.122 734.514 337.487 734.999 336.633C735.485 335.779 735.626 334.772 735.392 333.818C735.124 332.866 734.492 332.058 733.633 331.569C732.774 331.08 731.757 330.95 730.802 331.206Z" fill="#211715"/>
<path d="M677.794 308.718C677.277 318.98 676.301 332.372 674.872 342.552C674.585 345.799 673.747 348.973 672.394 351.937C670.824 354.596 668.847 356.992 666.535 359.037C651.559 373.699 636.108 388.007 623.153 404.483C622.102 408.455 621.66 412.816 619.374 415.044C611.252 422.966 600.417 429.598 589.192 427.952C586.942 427.761 584.822 426.816 583.176 425.271C582.384 424.476 581.898 423.428 581.803 422.31C581.708 421.192 582.01 420.077 582.656 419.16C579.211 420.264 574.162 418.973 574.203 415.357C574.227 413.196 576.134 411.596 577.873 410.319L588.682 402.328C586.115 404.878 581.135 402.652 580.411 399.107C579.687 395.562 582.204 391.996 585.41 390.319C588.741 388.876 592.343 388.164 595.972 388.233C599.312 388.059 603.249 389.604 609.123 386.848C618.559 372.009 628.875 357.748 640.017 344.144C642.614 340.778 644.845 337.144 646.671 333.305C649.889 326.453 648.6 316.29 648.294 308.725" fill="white"/>
<path d="M674.062 308.718C673.523 319.303 672.804 329.914 671.425 340.427C670.737 345.692 669.819 350.236 666.078 354.206C662.027 358.498 657.623 362.498 653.39 366.616C645.161 374.625 636.988 382.71 629.357 391.297C627.451 393.441 625.585 395.618 623.759 397.827C622.845 398.932 621.942 400.046 621.05 401.171C620.005 402.508 619.306 404.082 619.014 405.754C618.738 407.814 618.146 409.821 617.26 411.702C615.71 413.716 613.831 415.453 611.702 416.841C607.245 420.492 601.97 423.012 596.329 424.185C594.948 424.424 583.243 424.7 585.88 421.048C587.847 418.322 584.602 414.743 581.665 415.566C580.57 415.979 579.358 415.948 578.286 415.48C578.472 415.602 577.89 415.268 577.937 415.372C577.881 415.249 578.711 414.424 578.959 414.202C582.505 411.017 586.729 408.384 590.567 405.546L586.044 399.686C585.706 399.979 584.697 399.253 584.48 399.016C584.166 398.546 584.014 397.987 584.048 397.423C584.081 396.859 584.299 396.321 584.667 395.892C586.781 392.45 591.597 392.194 595.206 392.002C598.686 391.815 602.05 392.498 605.531 391.894C607.951 391.687 610.24 390.71 612.062 389.106C613.542 387.097 614.896 384.998 616.117 382.822C621.444 374.666 627.153 366.775 633.068 359.03C638.754 351.59 645.249 344.577 649.441 336.133C653.699 327.56 652.436 317.949 652.035 308.722C651.828 303.938 644.362 303.911 644.571 308.722C644.855 315.222 645.878 322.111 644.366 328.524C642.804 335.128 637.944 340.772 633.846 345.967C623.82 358.439 614.493 371.458 605.91 384.964L607.248 383.624C603.067 385.471 598.805 384.301 594.428 384.585C589.065 384.932 583.26 385.917 579.599 390.261C576.356 394.107 575.254 399.87 578.853 403.895C579.6 404.788 580.517 405.525 581.55 406.063C582.583 406.601 583.712 406.929 584.872 407.028C586.033 407.128 587.201 406.997 588.311 406.643C589.421 406.289 590.449 405.719 591.338 404.966C594.51 402.234 590.242 396.57 586.815 399.105C583.456 401.593 580.093 404.081 576.726 406.569C573.91 408.661 570.874 410.954 570.55 414.74C569.945 421.768 578.062 424.34 583.665 422.772L579.45 417.29C575.517 422.741 580.152 429.139 585.581 430.952C591.319 432.555 597.42 432.27 602.983 430.139C608.728 427.998 614.035 424.826 618.641 420.78C620.991 419.076 622.922 416.862 624.291 414.303C625.368 411.441 626.197 408.491 626.769 405.487L625.81 407.134C635.99 394.688 646.973 382.921 658.689 371.908C661.572 369.102 664.457 366.298 667.343 363.497C670.148 361.004 672.668 358.207 674.857 355.158C678.82 349.049 678.962 340.686 679.689 333.648C680.544 325.364 681.119 317.042 681.542 308.731C681.788 303.93 674.323 303.943 674.079 308.731L674.062 308.718Z" fill="#211715"/>
<path d="M627.971 293.192C626.694 302.213 626.273 311.371 625.526 320.447C625.34 322.643 625.153 324.839 624.955 327.035C624.872 327.93 624.783 328.824 624.689 329.718C624.644 330.127 624.595 330.534 624.552 330.942C624.536 331.099 624.515 331.254 624.494 331.411C624.425 331.982 624.59 330.75 624.519 331.254C624.362 332.959 624.009 334.641 623.468 336.266C622.677 337.965 621.665 339.553 620.459 340.987C618.363 343.815 616.235 346.62 614.077 349.4C609.021 355.904 603.826 362.308 598.374 368.486C595.202 372.074 600.464 377.373 603.651 373.763C608.556 368.206 613.249 362.465 617.831 356.634C620.195 353.62 622.531 350.582 624.84 347.521C627.356 344.657 629.369 341.389 630.796 337.854C631.919 333.371 632.552 328.779 632.682 324.16C633.132 318.99 633.525 313.814 633.941 308.641C634.162 305.908 634.384 303.174 634.634 300.445C634.738 299.304 634.845 298.164 634.966 297.026C635.009 296.61 635.055 296.196 635.102 295.782C635.126 295.569 635.152 295.358 635.179 295.147C635.248 294.569 635.052 296.037 635.179 295.175C635.409 294.221 635.267 293.216 634.781 292.363C634.296 291.51 633.504 290.874 632.566 290.585C631.611 290.33 630.594 290.461 629.735 290.95C628.876 291.439 628.244 292.246 627.976 293.197L627.971 293.192Z" fill="#211715"/>
<path d="M600.337 369.16C593.03 369.154 585.833 370.937 579.374 374.352C572.914 377.767 567.388 382.71 563.278 388.752C563.031 389.175 562.869 389.642 562.803 390.128C562.736 390.614 562.766 391.108 562.89 391.582C563.015 392.056 563.231 392.501 563.527 392.891C563.824 393.282 564.194 393.61 564.617 393.858C565.04 394.105 565.508 394.266 565.994 394.333C566.479 394.4 566.973 394.37 567.447 394.246C567.922 394.121 568.366 393.905 568.757 393.609C569.147 393.312 569.476 392.942 569.723 392.519C573.155 387.587 577.735 383.563 583.068 380.796C588.402 378.028 594.328 376.599 600.337 376.633C605.141 376.674 605.145 369.21 600.337 369.169V369.16Z" fill="#211715"/>
<path d="M728.572 336.688C734.634 348.241 733.709 361.821 730.887 374.16C727.781 387.744 722.439 400.686 717.335 413.609C714.692 420.304 711.512 427.2 710.516 434.374C709.493 441.735 712.072 448.046 715.367 454.483C718.083 459.29 720.491 464.265 722.577 469.376C724.709 475.394 726.454 481.541 727.801 487.782C730.805 501.325 732.782 515.076 733.714 528.917C734.045 533.682 741.51 533.72 741.178 528.917C740.308 516.386 738.651 503.922 736.218 491.599C733.836 479.546 730.826 467.052 724.807 456.233C721.968 451.13 717.987 445.189 717.681 439.188C717.308 431.803 721.134 424.246 723.78 417.507C728.93 404.382 734.435 391.304 737.75 377.562C741.32 362.763 742.292 346.795 735.013 332.928C732.774 328.674 726.337 332.443 728.57 336.695L728.572 336.688Z" fill="#211715"/>
<path d="M669.33 369.031C667.878 381.851 666.79 394.711 665.354 407.535C664.772 412.749 664.143 417.96 663.245 423.13C661.988 430.359 660.736 437.589 661.788 444.926C663.454 456.543 671.265 466.212 676.788 476.252C681.925 485.582 686.741 495.107 691.629 504.577C696.658 514.32 701.582 524.191 707.346 533.528C709.864 537.606 716.324 533.862 713.79 529.76C703.244 512.676 694.924 494.225 685.429 476.551C683.341 472.659 681.221 468.779 678.947 464.994C675.7 459.582 672.073 454.291 670.177 448.223C668.091 441.578 668.789 434.721 669.938 427.971C670.871 422.474 671.703 416.977 672.364 411.439C674.043 397.325 675.191 383.154 676.79 369.031C676.784 368.043 676.389 367.097 675.69 366.399C674.992 365.7 674.046 365.305 673.058 365.299C672.075 365.321 671.139 365.722 670.444 366.417C669.749 367.112 669.349 368.048 669.326 369.031H669.33Z" fill="#211715"/>
<path d="M631.393 246.099C627.679 244.212 624.102 242.066 620.69 239.676C627.855 232.666 636.292 218.517 641.799 210.139C645.372 212.983 648.346 216.435 648.482 217.571C648.958 221.588 642.444 240.895 634.415 247.722C633.566 247.257 632.536 246.707 631.393 246.099Z" fill="#0F41A6"/>
<path d="M633.283 242.876C629.564 240.998 625.987 238.852 622.58 236.454L623.326 242.315C632.128 233.595 638.274 222.309 645.019 212.024L639.158 212.779C641.119 214.27 642.894 215.991 644.444 217.905C644.578 218.172 644.742 218.422 644.933 218.651C645.12 218.778 644.711 217.905 644.765 217.797C644.701 218.19 644.683 218.59 644.711 218.987C644.696 219.237 644.889 218.159 644.696 219.012C644.622 219.349 644.571 219.691 644.499 220.028C644.357 220.696 644.191 221.359 644.013 222.017C643.588 223.598 643.081 225.16 642.538 226.701C640.207 233.269 636.979 240.542 631.775 245.078L636.298 244.494C635.292 243.947 634.283 243.41 633.273 242.871C629.038 240.609 625.265 247.048 629.506 249.315C630.516 249.855 631.525 250.392 632.531 250.939C633.249 251.333 634.075 251.489 634.887 251.384C635.7 251.279 636.459 250.919 637.054 250.355C643.502 244.733 647.316 235.773 650.025 227.854C651.194 224.834 651.934 221.664 652.223 218.439C652.423 213.912 647.59 210.053 644.435 207.495C644.025 207.105 643.533 206.811 642.995 206.635C642.457 206.458 641.886 206.405 641.325 206.477C640.763 206.549 640.225 206.746 639.749 207.053C639.273 207.36 638.872 207.769 638.574 208.251C632.174 218.01 626.401 228.757 618.05 237.032C617.657 237.441 617.36 237.932 617.182 238.47C617.004 239.008 616.949 239.579 617.021 240.141C617.092 240.703 617.289 241.242 617.596 241.719C617.903 242.195 618.313 242.596 618.796 242.893C622.203 245.291 625.78 247.437 629.499 249.315C633.742 251.59 637.516 245.149 633.283 242.876Z" fill="#211715"/>
<path d="M677.223 253.934C673.321 250.202 667.333 247.041 658.226 246.509C650.871 246.078 643.926 253.273 642.575 258.848C638.382 276.162 641.851 291.6 644.909 308.871C652.808 308.871 669.24 308.462 678.973 308.298C680.293 308.279 681.563 307.785 682.55 306.908C683.538 306.031 684.177 304.829 684.352 303.52C685.588 292.774 685.614 281.924 684.429 271.173C684.222 268.876 682.356 258.854 677.223 253.934Z" fill="#1D64F2"/>
<path d="M679.861 251.293C671.733 243.675 656.955 239.228 647.292 246.373C644.864 248.159 642.812 250.407 641.255 252.988C639.698 255.568 638.665 258.431 638.216 261.412C636.866 268.963 636.568 276.664 637.33 284.297C638.123 292.891 639.802 301.372 641.312 309.86C641.532 310.645 642.003 311.338 642.652 311.832C643.301 312.327 644.093 312.597 644.909 312.601C650.955 312.601 657 312.461 663.044 312.34C666.422 312.275 669.801 312.207 673.179 312.136C676.264 312.075 679.79 312.479 682.658 311.186C684.217 310.449 685.549 309.305 686.513 307.876C687.478 306.447 688.041 304.784 688.142 303.062C688.69 298.716 688.986 294.342 689.028 289.962C689.272 282.786 688.856 275.604 687.787 268.504C686.707 262.347 684.35 255.786 679.861 251.291C676.463 247.888 671.185 253.157 674.584 256.57C677.861 259.85 679.359 264.644 680.313 269.071C680.471 269.818 680.613 270.553 680.723 271.301C680.753 271.499 680.66 270.462 680.723 271.564C680.788 272.52 680.891 273.473 680.967 274.427C681.26 278.121 681.468 281.823 681.538 285.529C681.609 289.234 681.538 292.977 681.29 296.692C681.241 298.671 681.053 300.645 680.731 302.598C680.544 303.51 680.279 304.212 679.314 304.516C678.334 304.671 677.337 304.7 676.349 304.602L672.175 304.684L663.033 304.87C656.989 304.992 650.943 305.126 644.898 305.132L648.497 307.871C645.728 292.298 641.558 274.968 646.296 259.337C647.77 254.473 653.052 250.051 658.215 250.233C664.248 250.328 670.049 252.574 674.573 256.566C678.087 259.856 683.375 254.588 679.861 251.293Z" fill="#211715"/>
<path d="M735.015 336.688C736.914 332.299 735.89 327.778 734.069 323.524C733.058 321.396 731.937 319.322 730.71 317.31C729.471 315.071 728.522 312.625 727.393 310.328C722.756 300.892 717.67 291.669 712.335 282.62C707.301 274.07 702.035 265.663 696.536 257.398C691.2 249.049 685.3 241.073 678.878 233.526C674.843 228.84 670.26 224.657 665.227 221.066C660.486 217.58 655.142 215 649.464 213.457C644.784 212.416 642.786 219.614 647.48 220.653C651.987 221.908 656.248 223.916 660.084 226.593C664.328 229.444 668.201 232.811 671.614 236.618C677.776 243.494 683.382 250.848 688.381 258.611C698.945 274.177 708.618 290.33 717.352 306.992C719.761 311.621 721.773 316.508 724.256 321.078C725.669 323.304 726.876 325.656 727.861 328.103C728.277 329.362 729.109 331.635 728.553 332.92C728.085 333.782 727.962 334.79 728.211 335.739C728.459 336.688 729.06 337.506 729.891 338.027C730.747 338.52 731.763 338.655 732.718 338.404C733.674 338.154 734.492 337.537 734.996 336.688H735.015Z" fill="#211715"/>
<path d="M723.995 556.236C727.951 555.169 731.875 553.993 735.769 552.707C737.482 552.312 739.089 551.548 740.477 550.469C741.866 549.39 743.003 548.021 743.809 546.458C747.272 538.913 743.809 530.785 740.403 523.924C740.11 523.438 739.71 523.024 739.233 522.714C738.757 522.404 738.217 522.206 737.653 522.134C737.09 522.062 736.517 522.119 735.979 522.299C735.44 522.48 734.949 522.78 734.543 523.178C732.199 525.331 729.433 526.974 726.42 528.002C723.407 529.03 720.214 529.42 717.043 529.148C715.526 528.976 714.028 528.671 712.564 528.238C710.827 527.889 709.032 527.936 707.316 528.378C704.191 528.937 701.161 529.935 698.315 531.341C692.342 534.285 687.357 538.905 683.968 544.637C682.206 547.93 681.984 552.101 684.925 554.814C687.711 557.394 692.185 558.183 695.803 558.732C705.293 560.167 714.79 558.65 723.991 556.236C728.633 555.017 726.665 547.817 722.008 549.039C713.219 551.343 703.853 553.028 694.838 550.987C693.709 550.749 692.595 550.443 691.502 550.072C691.165 549.986 690.839 549.861 690.53 549.699C689.968 549.248 689.819 549.198 690.084 549.55C689.76 548.367 691.711 546.49 692.394 545.689C694.457 543.155 696.898 540.952 699.63 539.159C702.386 537.466 705.432 536.297 708.612 535.711C709.071 535.621 709.534 535.54 709.999 535.466C710.87 535.388 710.952 535.346 710.247 535.339C711.135 535.455 712.055 535.871 712.943 536.054C714.864 536.453 716.818 536.668 718.78 536.696C726.589 536.744 734.119 533.793 739.818 528.452L733.955 527.706C736.121 532.078 739.484 538.407 737.071 543.324C736.071 545.363 733.246 545.701 731.287 546.309C728.21 547.277 725.12 548.205 722.004 549.044C717.378 550.285 719.343 557.486 723.995 556.236Z" fill="#211715"/>
<path d="M429.084 372.457L433.002 383.105C433.285 384.031 433.895 384.823 434.717 385.335C435.357 385.71 436.095 385.885 436.836 385.838C437.577 385.792 438.287 385.525 438.875 385.073C439.464 384.621 439.904 384.003 440.14 383.299C440.376 382.595 440.396 381.837 440.199 381.122L436.28 370.471C435.996 369.546 435.387 368.754 434.566 368.242C433.694 367.744 432.66 367.609 431.69 367.868C430.741 368.14 429.936 368.773 429.448 369.632C428.959 370.49 428.827 371.505 429.078 372.46L429.084 372.457Z" fill="#211715"/>
<path d="M413.854 393.452C417.659 394.892 421.441 396.395 425.199 397.96C425.679 398.092 426.18 398.128 426.674 398.064C427.168 398 427.644 397.837 428.074 397.586C428.497 397.339 428.868 397.011 429.164 396.621C429.46 396.23 429.677 395.785 429.801 395.311C429.926 394.837 429.956 394.343 429.889 393.858C429.823 393.372 429.661 392.905 429.414 392.481L428.83 391.726C428.374 391.269 427.806 390.939 427.184 390.767C423.429 389.199 419.647 387.697 415.84 386.259C415.359 386.128 414.857 386.093 414.364 386.157C413.87 386.221 413.394 386.383 412.962 386.632C412.108 387.131 411.487 387.95 411.236 388.907C410.985 389.865 411.125 390.882 411.625 391.737C412.151 392.546 412.937 393.151 413.854 393.452Z" fill="#211715"/>
<path d="M628.833 162.725L563.713 196.091C560.635 197.902 557.261 199.155 553.747 199.793C552.764 200.003 551.737 199.828 550.88 199.302C549.014 197.882 550.365 194.947 551.812 193.115C554.757 189.394 557.753 185.715 560.8 182.076C556.404 169.289 563.426 160.447 568.99 154.151C573.02 149.591 580.764 145.88 588.011 143.723C607.485 137.927 621.668 145.561 630.014 159.322C630.241 159.615 630.4 159.956 630.476 160.319C630.553 160.683 630.546 161.059 630.456 161.419C630.159 161.954 629.681 162.365 629.109 162.58L628.833 162.725Z" fill="#1D64F2"/>
<path d="M626.95 159.503L584.915 181.042L563.898 191.812C560.918 193.588 557.719 194.968 554.382 195.917C553.769 195.953 553.158 196.019 552.551 196.115C552.378 196.313 553.949 197.345 553.719 197.421C553.742 197.421 553.856 196.83 553.893 196.789C554.902 195.688 555.736 194.156 556.692 192.977C558.987 190.118 561.711 187.379 563.752 184.343C564.971 182.53 564.312 181.013 563.818 179.083C563.414 177.569 563.199 176.01 563.176 174.443C563.366 169.252 565.305 164.279 568.678 160.329C572.075 155.855 576.55 152.314 581.685 150.037C587.361 147.318 593.529 145.779 599.816 145.514C605.427 145.331 610.969 146.781 615.771 149.688C618.091 151.136 620.207 152.887 622.063 154.894C622.956 155.835 623.795 156.826 624.575 157.863C625.153 158.639 626.872 160.486 626.747 161.425L627.256 159.542C627.297 159.293 627.2 159.282 626.965 159.508C622.688 161.699 626.461 168.142 630.732 165.953C639.414 161.503 629.198 151.007 624.778 147.139C619.316 142.315 612.526 139.25 605.294 138.343C596.861 137.543 588.364 138.943 580.633 142.406C576.354 144.074 572.349 146.375 568.753 149.233C566.12 151.57 563.784 154.221 561.795 157.126C558.974 160.747 557.081 165.004 556.282 169.524C555.482 174.045 555.801 178.692 557.209 183.061L558.17 179.43C555.695 182.387 553.254 185.373 550.844 188.387C548.792 190.962 546.31 193.689 546.263 197.199C546.232 198.83 546.841 200.408 547.961 201.595C549.081 202.781 550.621 203.481 552.251 203.543C555.891 203.499 559.462 202.552 562.646 200.787C569.923 197.388 577 193.477 584.148 189.814L605.99 178.619L630.717 165.949C634.994 163.755 631.23 157.314 626.95 159.503Z" fill="#211715"/>
</svg>
