<svg width="764" height="668" viewBox="0 0 764 668" fill="none" xmlns="http://www.w3.org/2000/svg">
<path d="M380.75 370.875L123.25 507.75V230.875L380.75 77.75L634.5 230.875V507.75L380.75 370.875Z" fill="#EEC82D"/>
<path d="M380.75 77.75L634.5 230.875V507.75L380.75 370.875V77.75Z" fill="#121519"/>
<path d="M380.75 77.75L123.25 230.875V507.75L380.75 370.875V77.75Z" fill="#121519"/>
<path d="M380.75 367.75L123.25 230.25V507.75L380.75 660.875L634.5 507.75V230.25L380.75 367.75Z" fill="#F5CC24"/>
<path d="M380.75 367.75L123.25 230.25V507.75L380.75 660.875L634.5 507.75V230.25L380.75 367.75Z" fill="#121519"/>
<path d="M380.75 667.125C379.5 667.125 378.25 667.125 377.625 666.5L120.125 513.375C118.25 512.125 117 510.25 117 507.75V230.25C117 227.75 118.25 225.875 120.125 224.625C122 223.375 124.5 223.375 126.375 224.625L380.75 360.25L631.375 224.625C633.25 223.375 635.75 223.375 637.625 224.625C639.5 225.875 640.75 227.75 640.75 230.25V507.75C640.75 510.25 639.5 512.125 637.625 513.375L383.875 666.5C383.25 666.5 382 667.125 380.75 667.125ZM129.5 504.625L380.75 654L628.25 504.625V240.875L383.875 373.375C382 374.625 379.5 374.625 378.25 373.375L129.5 240.875V504.625Z" fill="#6A576D"/>
<path d="M380.75 660.875L634.5 507.75V230.25L380.75 367.75V660.875Z" fill="#121519"/>
<path d="M380.75 667.125C379.5 667.125 378.875 667.125 377.625 666.5C375.75 665.25 374.5 663.375 374.5 660.875V367.75C374.5 365.25 375.75 363.375 377.625 362.125L631.375 224.625C633.25 223.375 635.75 223.375 637.625 224.625C639.5 225.875 640.75 227.75 640.75 230.25V507.75C640.75 510.25 639.5 512.125 637.625 513.375L383.875 666.5C383.25 666.5 382 667.125 380.75 667.125ZM387 371.5V649.625L628.25 504.625V240.875L387 371.5Z" fill="#6A576D"/>
<path d="M179.5 409.625L380.75 523.375V367.75L123.25 230.25L179.5 409.625Z" fill="#121519"/>
<path d="M7 297.125L123.25 230.25L380.75 367.75L257 438.375L7 297.125Z" fill="white"/>
<path d="M7 164L123.25 230.875L380.75 77.75L257.625 7.125L7 164Z" fill="white"/>
<path d="M123.25 237.125C122 237.125 121.375 237.125 120.125 236.5L3.875 169C2 168.375 0.75 165.875 0.75 164C0.75 161.5 2 159.625 3.875 158.375L254.5 1.5C256.375 0.25 258.875 0.25 260.75 1.5L384.5 72.125C386.375 73.375 387.625 75.25 387.625 77.75C387.625 80.25 386.375 82.125 384.5 83.375L126.375 235.875C125.75 236.5 124.5 237.125 123.25 237.125ZM18.875 163.375L123.25 223.375L368.875 77.75L257.625 14.625L18.875 163.375Z" fill="#6A576D"/>
<path d="M497 479.625L634.5 409V230.875L382.625 366.5L380.75 367.75L497 479.625Z" fill="#121519"/>
<path d="M380.75 367.75L497 434.625L757 300.875L634.5 230.875L380.75 367.75Z" fill="white"/>
<path d="M257 444.625C255.75 444.625 255.125 444.625 253.875 444L3.875 302.75C2 301.5 0.75 299.625 0.75 297.125C0.75 294.625 2 292.75 3.875 291.5L120.125 224.625C122 223.375 124.5 223.375 126.375 224.625L383.875 362.125C385.75 363.375 387 365.25 387 367.75C387 370.25 385.75 372.125 383.875 373.375L260.125 444C259.5 444.625 258.25 444.625 257 444.625ZM19.5 297.125L257 430.875L367.625 367.75L123.25 237.75L19.5 297.125Z" fill="#6A576D"/>
<path d="M497 440.875C495.75 440.875 495.125 440.875 493.875 440.25L377.625 373.375C375.75 372.125 374.5 370.25 374.5 367.75C374.5 365.25 375.75 363.375 377.625 362.125L631.375 224.625C633.25 223.375 635.75 223.375 637.625 224.625L760.125 295.25C762 296.5 763.25 298.375 763.25 300.875C763.25 303.375 762 305.25 760.125 306.5L500.125 440.25C498.875 440.875 498.25 440.875 497 440.875ZM393.875 367.75L497.625 427.75L744.5 300.875L634.5 237.75L393.875 367.75Z" fill="#6A576D"/>
<path d="M380.75 77.75L497.625 10.875L757 160.25L634.5 230.875L380.75 77.75Z" fill="white"/>
<path d="M634.5 237.125C633.25 237.125 632 237.125 631.375 236.5L377.625 83.375C375.75 82.125 374.5 80.25 374.5 77.75C374.5 75.25 375.75 73.375 377.625 72.125L494.5 5.875C496.375 4.625 498.875 4.625 500.75 5.875L760.125 155.25C762 156.5 763.25 158.375 763.25 160.875C763.25 163.375 762 165.25 760.125 166.5L637.625 237.125C636.375 236.5 635.125 237.125 634.5 237.125ZM393.25 77.75L634.5 223.375L744.5 160.25L497.625 18.375L393.25 77.75Z" fill="#6A576D"/>
<path d="M380.75 27.75L123.25 165.25V230.875L380.75 367.75L634.5 230.875V164.625L380.75 27.75Z" fill="#1D64F2"/>
<path d="M380.75 374C379.5 374 378.875 374 377.625 373.375L120.75 236.5C118.875 235.25 117.625 233.375 117.625 230.875V165.25C117.625 162.75 118.875 160.875 120.75 159.625L378.25 22.125C380.125 20.875 382.625 20.875 383.875 22.125L637 159C638.875 160.25 640.125 162.125 640.125 164.625V230.875C640.125 233.375 638.875 235.25 637 236.5L383.25 374H380.75ZM129.5 227.125L380.75 360.25L628.25 226.5V167.75L380.75 35.25L129.5 169V227.125Z" fill="#6A576D"/>
<path d="M380.75 302.125L123.25 165.25V230.875L380.75 367.75V302.125Z" fill="#121519"/>
<path d="M380.75 302.125L634.5 164.625V230.875L380.75 367.75V302.125Z" fill="#121519"/>
</svg>
