<svg width="617" height="518" viewBox="0 0 617 518" fill="none" xmlns="http://www.w3.org/2000/svg">
<path d="M492.333 84.0001H425.667V59.0001C425.667 27.0001 399.333 0.666748 367.333 0.666748H59C27 0.666748 0.666687 27.0001 0.666687 59.0001V359C0.666687 391 27 417.333 59 417.333H68.3334C72.6667 473 119 517.333 175.667 517.333C232.333 517.333 278.667 473 283 417.333H334.667C339 473 385.333 517.333 442 517.333C498.667 517.333 545 473 549.333 417.333H558.667C590.667 417.333 617 391 617 359V209C617 140 561 84.0001 492 84.0001H492.333ZM50.6667 359V59.0001C50.6667 54.3334 54.3334 50.6667 59 50.6667H367.333C372 50.6667 375.667 54.3334 375.667 59.0001V323.667C375.667 323.667 374 325.667 373 326.333C368 330.667 363.333 335.333 359 340.333C357.667 342 356.333 343.333 355.333 345C350.333 352 345.667 359 342.667 367H276C276 367 276 367 276 366.667C273.667 361 270.333 355.333 267 350.333C266 349 265 347.667 264 346C261.333 342 258.333 338.667 255 335C253.667 333.667 252.667 332.333 251.333 331C247 327 242.667 323.333 238 320C237.333 319.667 237 319 236.333 318.667C231.333 315.333 226 312.667 220.667 310C218.667 309 216.667 308.333 214.667 307.667C210.333 306 206.333 304.667 202 303.667C200 303.333 198 302.667 196 302.333C189.667 301 183 300.333 176.333 300.333C169.667 300.333 163.333 301 156.667 302.333C154.667 302.667 152.667 303.333 150.667 303.667C146.333 304.667 142 306 138 307.667C136 308.333 134 309 132 310C126.667 312.333 121.333 315.333 116.333 318.667C115.667 319 115.333 319.333 114.667 320C110 323.333 105.333 327 101.333 331C100 332.333 98.6667 333.667 97.6667 335C94.3333 338.333 91.3333 342 88.6667 346C87.6667 347.333 86.6667 348.667 85.6667 350.333C82.3334 355.667 79.3334 361 76.6667 366.667C76.6667 366.667 76.6667 366.667 76.6667 367H60C55.3334 367 51.6667 363.333 51.6667 358.667L50.6667 359ZM175.667 467.333C143.667 467.333 117.333 441 117.333 409C117.333 405 117.667 401 118.667 397.333C120 391.333 122.333 385.667 125.333 380.667C125.667 379.667 126.333 379 126.667 378C129.667 373.333 133.333 369 137.667 365.333C138.667 364.667 139.333 364 140.333 363.333C144.667 360 149.667 357 155 355C155.667 355 156.667 354.333 157.667 354.333C163.333 352.333 169.667 351 176 351C182.333 351 188.333 352.333 194.333 354.333C195.333 354.333 196 354.667 197 355C202.333 357 207.333 360 211.667 363.333C212.667 364 213.333 364.667 214.333 365.333C218.667 369 222.333 373.333 225.333 378C226 378.667 226.333 379.667 226.667 380.667C229.667 386 232 391.333 233.333 397.333C234 401 234.667 405 234.667 409C234.667 441 208.333 467.333 176.333 467.333H175.667ZM442.333 467.333C410.333 467.333 384 441 384 409C384 405 384.333 401 385.333 397.333C386.333 393.333 387.333 389.333 389 385.667C389 385.667 389 385.333 389 385C390.667 381.667 392.333 378.333 394.667 375.333C395 374.667 395.667 374.333 396 373.667C398 371 400 368.667 402.333 366.333C403 365.667 403.667 365.333 404.333 364.667C406.667 362.667 409.333 360.667 412 359C412.667 358.667 413.667 358 414.667 357.667C417.667 356 421 354.667 424.333 353.667C425.667 353.333 427 352.667 428.667 352.333C433 351.333 437.667 350.667 442.333 350.667C448.667 350.667 454.667 352 460.667 354C461.667 354 462.333 354.333 463.333 354.667C468.667 356.667 473.667 359.667 478 363C479 363.667 479.667 364.333 480.667 365C485 368.667 488.667 373 491.667 377.667C492.333 378.333 492.667 379.333 493 380.333C496 385.667 498.333 391 499.667 397C500.333 400.667 501 404.667 501 408.667C501 440.667 474.667 467 442.667 467L442.333 467.333ZM425.667 234V134H492.333C533.667 134 567.333 167.667 567.333 209V234H425.667Z" fill="#242323"/>
</svg>
